<svg width="86" height="86" viewBox="0 0 86 86" fill="none" xmlns="http://www.w3.org/2000/svg">
<path d="M26.1469 65.3309H37.5462C39.233 65.3309 40.6753 63.9694 40.6753 62.2832V48.8264C40.6753 48.3124 40.188 47.9606 39.6742 47.9606H24.0194C23.9039 47.9545 23.7884 47.9727 23.6804 48.014C23.5724 48.0553 23.4742 48.1187 23.3923 48.2003C23.3104 48.2819 23.2464 48.3798 23.2047 48.4876C23.1629 48.5955 23.1443 48.7109 23.1499 48.8264V62.2832C23.1437 62.6809 23.2166 63.0758 23.3644 63.4451C23.5122 63.8143 23.7319 64.1505 24.0108 64.4341C24.2897 64.7177 24.6221 64.943 24.9888 65.097C25.3555 65.2509 25.7492 65.3305 26.1469 65.3309ZM37.8477 49.8217L35.9472 52.4068C35.6474 52.8119 35.2559 53.1402 34.8047 53.3649C34.3536 53.5895 33.8557 53.704 33.3517 53.699H30.3418C29.8379 53.704 29.3399 53.5895 28.8888 53.3649C28.4377 53.1402 28.0461 52.8119 27.7464 52.4068L25.8459 49.8217H37.8477ZM25.011 51.6898L26.2713 53.4684C26.736 54.1141 27.3473 54.6404 28.0549 55.004C28.7625 55.3676 29.5463 55.5582 30.3418 55.5601H33.3517C34.1566 55.5588 34.95 55.3689 35.6683 55.0056C36.3866 54.6424 37.0099 54.1159 37.488 53.4684L38.8142 51.6898V62.2826C38.8142 62.9425 38.2067 63.4692 37.5466 63.4692H26.1474C25.994 63.469 25.8422 63.4378 25.7012 63.3775C25.5601 63.3172 25.4327 63.229 25.3266 63.1183C25.2204 63.0075 25.1378 62.8765 25.0836 62.733C25.0293 62.5895 25.0047 62.4365 25.011 62.2832V51.6898Z" fill="#262626"/>
<path d="M49.3878 65.3309H60.7871C61.1849 65.3305 61.5786 65.251 61.9453 65.0971C62.3121 64.9432 62.6446 64.7178 62.9235 64.4343C63.2024 64.1507 63.4222 63.8145 63.57 63.4452C63.7178 63.0759 63.7907 62.6809 63.7846 62.2832V48.8264C63.7902 48.7109 63.7715 48.5955 63.7298 48.4876C63.688 48.3798 63.6241 48.2819 63.5422 48.2003C63.4602 48.1187 63.3621 48.0553 63.2541 48.014C63.1461 47.9727 63.0306 47.9545 62.9151 47.9606H47.2603C46.7465 47.9606 46.2592 48.3124 46.2592 48.8264V62.2832C46.2592 63.9694 47.7015 65.3309 49.3878 65.3309ZM61.0886 49.8217L59.1881 52.4067C58.8883 52.8118 58.4968 53.1402 58.0457 53.3648C57.5946 53.5895 57.0966 53.704 56.5926 53.699H53.5828C53.0788 53.704 52.5808 53.5895 52.1297 53.3648C51.6785 53.1402 51.287 52.8118 50.9873 52.4067L49.0868 49.8217H61.0886ZM48.1203 51.6898L49.4465 53.4683C49.9246 54.1158 50.5478 54.6423 51.2661 55.0056C51.9844 55.3689 52.7778 55.5588 53.5828 55.5601H56.5926C57.3882 55.5582 58.172 55.3676 58.8796 55.004C59.5872 54.6403 60.1985 54.114 60.6632 53.4683L61.9235 51.6898V62.2826C61.93 62.4359 61.9054 62.589 61.8513 62.7326C61.7972 62.8762 61.7146 63.0074 61.6085 63.1183C61.5024 63.2292 61.375 63.3175 61.2339 63.3779C61.0929 63.4383 60.941 63.4696 60.7876 63.4698H49.3883C48.7282 63.4698 48.1207 62.9425 48.1207 62.2832L48.1203 51.6898Z" fill="#262626"/>
<path d="M21.8629 30.0632C21.9824 30.0893 22.1059 30.0915 22.2263 30.0697C22.3467 30.0479 22.4616 30.0026 22.5644 29.9363C22.6672 29.8701 22.7559 29.7841 22.8255 29.6835C22.895 29.5828 22.944 29.4694 22.9696 29.3498C23.1903 28.3329 23.4491 27.31 23.739 26.31L26.0826 18.2264C26.1166 18.1091 26.1272 17.9861 26.1137 17.8647C26.1002 17.7432 26.0629 17.6256 26.004 17.5186C25.945 17.4115 25.8656 17.3171 25.7701 17.2408C25.6747 17.1644 25.5652 17.1076 25.4478 17.0736C25.3304 17.0396 25.2075 17.0291 25.0861 17.0426C24.9646 17.056 24.847 17.0933 24.7399 17.1523C24.6329 17.2112 24.5385 17.2907 24.4622 17.3861C24.3858 17.4815 24.329 17.5911 24.295 17.7084L21.9522 25.7924C21.6505 26.8331 21.3813 27.8975 21.1516 28.9563C21.0992 29.1974 21.1447 29.4495 21.2781 29.657C21.4114 29.8646 21.6218 30.0107 21.8629 30.0632Z" fill="#262626"/>
<path d="M25.8899 15.5414C26.0073 15.5756 26.1302 15.5863 26.2518 15.5728C26.3733 15.5594 26.4909 15.5222 26.598 15.4632C26.7051 15.4043 26.7995 15.3248 26.8758 15.2293C26.9521 15.1338 27.0088 15.0242 27.0427 14.9067L27.3703 13.7767C27.4043 13.6594 27.4149 13.5364 27.4014 13.415C27.3879 13.2935 27.3506 13.1759 27.2916 13.0689C27.2327 12.9618 27.1532 12.8674 27.0578 12.7911C26.9624 12.7147 26.8529 12.6579 26.7355 12.6239C26.6181 12.5899 26.4952 12.5794 26.3737 12.5928C26.2523 12.6063 26.1347 12.6436 26.0276 12.7026C25.9206 12.7615 25.8262 12.841 25.7498 12.9364C25.6735 13.0318 25.6167 13.1413 25.5827 13.2587L25.2553 14.3886C25.1866 14.6256 25.2149 14.8802 25.3339 15.0964C25.4529 15.3126 25.6529 15.4726 25.8899 15.5414Z" fill="#262626"/>
<path d="M16.4815 76.9488V77.0246C16.4858 78.0786 16.9073 79.0879 17.6538 79.832C18.4002 80.576 19.411 80.9942 20.4649 80.9951H66.4702C67.5241 80.9942 68.5348 80.5761 69.2813 79.832C70.0278 79.088 70.4492 78.0787 70.4536 77.0248V76.9489C71.1349 76.8852 71.7676 76.5686 72.2269 76.0614C72.6863 75.5542 72.9389 74.8933 72.9351 74.2091V68.1931C72.9351 66.7496 71.8572 65.4965 70.4536 65.346V47.945C71.1402 47.8653 71.7732 47.5349 72.2312 47.0171C72.6891 46.4994 72.9398 45.8308 72.9351 45.1395V39.1245C72.9396 38.424 72.6791 37.7476 72.2059 37.2311C71.7327 36.7146 71.0817 36.3961 70.3835 36.3395C70.2053 32.6096 69.5905 28.9135 68.5517 25.3268L63.0501 6.3431C62.9365 5.95657 62.7012 5.61704 62.3791 5.37504C62.057 5.13303 61.6654 5.0015 61.2625 5H55.2808C54.7846 4.99955 54.3083 5.19466 53.955 5.54304C53.6017 5.89141 53.3999 6.36499 53.3935 6.86111V18.7937C53.3935 21.4262 52.3477 23.9509 50.4862 25.8124C48.6248 27.6739 46.1001 28.7196 43.4676 28.7196C40.835 28.7196 38.3104 27.6739 36.4489 25.8124C34.5874 23.9509 33.5417 21.4262 33.5417 18.7937V6.86111C33.5352 6.36499 33.3334 5.89141 32.9801 5.54304C32.6269 5.19466 32.1505 4.99955 31.6543 5H25.6726C25.2697 5.00147 24.8781 5.133 24.556 5.37501C24.2339 5.61701 23.9986 5.95655 23.885 6.3431L18.3834 25.3264C17.3446 28.9131 16.7299 32.6092 16.5518 36.339C15.8535 36.3956 15.2024 36.7142 14.7291 37.2308C14.2559 37.7474 13.9954 38.4238 14.0001 39.1245V45.1403C13.9955 45.8314 14.2463 46.4998 14.7042 47.0174C15.1622 47.535 15.7951 47.8653 16.4815 47.945V65.3463C15.078 65.4968 14.0001 66.7499 14.0001 68.1934V74.2092C13.9963 74.8934 14.249 75.5542 14.7083 76.0613C15.1676 76.5685 15.8003 76.8851 16.4815 76.9488ZM68.5925 77.0246C68.5887 77.5851 68.3635 78.1214 67.9659 78.5166C67.5684 78.9117 67.0307 79.1337 66.4702 79.134H20.4649C19.9044 79.1337 19.3668 78.9117 18.9692 78.5166C18.5717 78.1215 18.3464 77.5853 18.3426 77.0248V76.9627H20.5561C20.6741 76.9662 20.7915 76.9454 20.9011 76.9017C21.0107 76.858 21.1102 76.7923 21.1935 76.7086C21.2767 76.625 21.342 76.5252 21.3851 76.4153C21.4283 76.3055 21.4485 76.188 21.4445 76.07V75.1016H65.4906V76.07C65.4866 76.188 65.5068 76.3055 65.55 76.4153C65.5932 76.5252 65.6584 76.625 65.7416 76.7086C65.8249 76.7923 65.9244 76.858 66.034 76.9017C66.1436 76.9454 66.261 76.9662 66.379 76.9627H68.5925V77.0246ZM65.4906 46.2545V47.0014C65.4855 47.1229 65.5044 47.2441 65.5463 47.3582C65.5883 47.4723 65.6524 47.5769 65.735 47.6661C65.8176 47.7552 65.917 47.8272 66.0275 47.8777C66.1381 47.9282 66.2575 47.9564 66.379 47.9605H68.5925V65.3308H66.379C65.865 65.3308 65.4906 65.8181 65.4906 66.3319V67.347H21.4445V66.3319C21.4445 65.8181 21.0701 65.3308 20.5561 65.3308H18.3426V47.9605H20.5561C20.6776 47.9564 20.797 47.9282 20.9076 47.8777C21.0181 47.8272 21.1175 47.7552 21.2001 47.6661C21.2827 47.5769 21.3468 47.4723 21.3888 47.3582C21.4307 47.2441 21.4497 47.1229 21.4445 47.0014V46.2545H65.4906ZM21.4445 44.3934V40.0508H65.4906V44.3934H21.4445ZM65.4906 69.2081V73.2405H21.4445V69.2081H65.4906ZM71.074 68.1931V74.2089C71.076 74.3277 71.054 74.4456 71.0092 74.5556C70.9643 74.6656 70.8976 74.7654 70.8131 74.8489C70.7286 74.9323 70.628 74.9978 70.5174 75.0412C70.4069 75.0847 70.2887 75.1052 70.1699 75.1016H67.3517V67.1919H70.1699C70.683 67.1919 71.074 67.6799 71.074 68.1931ZM70.1699 38.1897C70.2909 38.1908 70.4105 38.216 70.5217 38.2638C70.6328 38.3115 70.7334 38.3809 70.8175 38.4679C70.9016 38.5549 70.9676 38.6577 71.0117 38.7704C71.0557 38.8831 71.0769 39.0035 71.074 39.1245V45.1403C71.0806 45.3872 70.9893 45.6267 70.8199 45.8064C70.6505 45.9862 70.4168 46.0915 70.1699 46.0994H67.3517V38.1897H70.1699ZM20.171 25.8444L25.6726 6.86111H31.6806V18.7937C31.6806 21.9198 32.9224 24.9179 35.1329 27.1284C37.3434 29.3389 40.3415 30.5807 43.4676 30.5807C46.5937 30.5807 49.5917 29.3389 51.8022 27.1284C54.0127 24.9179 55.2546 21.9198 55.2546 18.7937V6.86111H61.2625L66.7641 25.8444C67.7531 29.2594 68.3421 32.7777 68.5193 36.3286H66.379C66.2588 36.33 66.1401 36.3555 66.0299 36.4035C65.9197 36.4516 65.8203 36.5213 65.7374 36.6084C65.6546 36.6955 65.5901 36.7984 65.5477 36.9109C65.5053 37.0234 65.4859 37.1432 65.4906 37.2633V38.1897H21.4445V37.2633C21.4492 37.1432 21.4298 37.0234 21.3874 36.9109C21.345 36.7984 21.2805 36.6955 21.1977 36.6084C21.1149 36.5213 21.0154 36.4516 20.9052 36.4035C20.795 36.3555 20.6763 36.33 20.5561 36.3286H18.4158C18.593 32.7777 19.182 29.2594 20.171 25.8444ZM15.8612 45.1403V39.1245C15.8583 39.0035 15.8794 38.8831 15.9235 38.7704C15.9675 38.6577 16.0335 38.5549 16.1176 38.4679C16.2017 38.3809 16.3023 38.3115 16.4135 38.2638C16.5246 38.216 16.6442 38.1908 16.7652 38.1897H19.5834V46.0994H16.7652C16.5183 46.0915 16.2847 45.9862 16.1152 45.8064C15.9458 45.6267 15.8545 45.3872 15.8612 45.1403ZM15.8612 68.1931C15.8612 67.6799 16.2522 67.1919 16.7652 67.1919H19.5834V75.1016H16.7652C16.6465 75.1052 16.5282 75.0847 16.4177 75.0412C16.3071 74.9978 16.2065 74.9323 16.122 74.8489C16.0375 74.7654 15.9708 74.6656 15.926 74.5556C15.8811 74.4456 15.8591 74.3277 15.8612 74.2089V68.1931Z" fill="#262626"/>
</svg>
