<svg width="87" height="86" viewBox="0 0 87 86" fill="none" xmlns="http://www.w3.org/2000/svg">
<g clip-path="url(#clip0_52_533)">
<path d="M12.8614 31.5807C3.17632 41.2658 4.72482 58.5768 16.3154 70.1683C22.564 76.416 30.745 80.0005 38.7594 80.0023C38.7603 80.0023 38.7603 80.0023 38.7613 80.0023C45.0542 80.0023 50.7885 77.7369 54.903 73.6233L55.8429 72.6835L13.8003 30.6418L12.8614 31.5807ZM52.0502 72.6493C48.5268 75.6861 43.86 77.3447 38.7613 77.3447C31.4443 77.3447 23.9479 74.0442 18.1942 68.2896C8.02533 58.1198 6.21412 43.2417 13.8336 34.4326L52.0502 72.6493Z" fill="#262626"/>
<path d="M40.6678 45.8158C38.2239 43.3718 34.6033 43.0305 32.5793 45.0554L41.4291 53.9042C43.4521 51.8821 43.1108 48.2606 40.6678 45.8158Z" fill="#262626"/>
<path d="M53.1421 47.4125L55.7933 47.283C55.0838 32.7526 39.4517 30.7157 39.2954 30.6963L38.979 33.3354C39.5322 33.4011 52.5399 35.0967 53.1421 47.4125Z" fill="#262626"/>
<path d="M38.7208 17.6455L38.4044 20.2846C38.6708 20.3161 65.0147 23.7433 66.1951 47.9865L68.8453 47.8579C67.5595 21.3983 39.0085 17.6807 38.7208 17.6455Z" fill="#262626"/>
<path d="M40.1988 6L39.8824 8.64003C40.246 8.68258 76.2241 13.3632 77.8373 46.5089L80.4894 46.3784C78.7697 11.0155 40.5845 6.04625 40.1988 6Z" fill="#262626"/>
</g>
<defs>
<clipPath id="clip0_52_533">
<rect width="86" height="86" fill="white" transform="translate(0.5)"/>
</clipPath>
</defs>
</svg>
