<svg width="86" height="86" viewBox="0 0 86 86" fill="none" xmlns="http://www.w3.org/2000/svg">
<path d="M55.164 29.4016L55.5149 29.0475L55.164 29.4016C55.3393 29.5753 55.4369 29.8097 55.4369 30.0532V41.4437C55.4369 41.6872 55.3393 41.9216 55.164 42.0952C54.9886 42.269 54.7496 42.3675 54.4995 42.3675H31.5015C31.2513 42.3675 31.0124 42.269 30.837 42.0952C30.6617 41.9216 30.5641 41.6872 30.5641 41.4437V30.0532C30.5641 29.8097 30.6617 29.5753 30.837 29.4016C31.0124 29.2279 31.2513 29.1294 31.5015 29.1294H54.4995C54.7496 29.1294 54.9886 29.2279 55.164 29.4016ZM32.9388 30.977H32.4388V31.477V40.0199V40.5199H32.9388H53.0621H53.5621V40.0199V31.477V30.977H53.0621H32.9388Z" stroke="#262626"/>
<path d="M37.2515 71.8433H48.7505C49.0006 71.8433 49.2396 71.9417 49.415 72.1155C49.5903 72.2891 49.6879 72.5236 49.6879 72.7671C49.6879 73.0105 49.5903 73.245 49.415 73.4186C49.2396 73.5924 49.0006 73.6909 48.7505 73.6909H37.2515C37.0013 73.6909 36.7624 73.5924 36.587 73.4186L36.2473 73.7615L36.587 73.4186C36.4117 73.245 36.3141 73.0105 36.3141 72.7671C36.3141 72.5236 36.4117 72.2891 36.587 72.1155C36.7624 71.9417 37.0013 71.8433 37.2515 71.8433Z" stroke="#262626"/>
<path d="M37.2515 66.1484H48.7505C49.0006 66.1484 49.2396 66.2469 49.415 66.4207C49.5903 66.5943 49.6879 66.8288 49.6879 67.0722C49.6879 67.3157 49.5903 67.5502 49.415 67.7238C49.2396 67.8976 49.0006 67.9961 48.7505 67.9961H37.2515C37.0013 67.9961 36.7624 67.8976 36.587 67.7238L36.2473 68.0667L36.587 67.7238C36.4117 67.5502 36.3141 67.3157 36.3141 67.0722C36.3141 66.8288 36.4117 66.5943 36.587 66.4207C36.7624 66.2469 37.0013 66.1484 37.2515 66.1484Z" stroke="#262626"/>
<path d="M37.2515 60.4526H48.7505C49.0006 60.4526 49.2396 60.5511 49.415 60.7249C49.5903 60.8985 49.6879 61.133 49.6879 61.3764C49.6879 61.6199 49.5903 61.8544 49.415 62.028C49.2396 62.2018 49.0006 62.3003 48.7505 62.3003H37.2515C37.0013 62.3003 36.7624 62.2018 36.587 62.028L36.2473 62.3709L36.587 62.028C36.4117 61.8544 36.3141 61.6199 36.3141 61.3764C36.3141 61.133 36.4117 60.8985 36.587 60.7249C36.7624 60.5511 37.0013 60.4526 37.2515 60.4526Z" stroke="#262626"/>
<path d="M32.9388 48.0622H32.4388V48.5622V51.4098V51.9098H32.9388H38.6884H39.1884V51.4098V48.5622V48.0622H38.6884H32.9388ZM30.837 53.4852L30.5611 53.7637L30.837 53.4852C30.6617 53.3116 30.5641 53.0771 30.5641 52.8336V47.1384C30.5641 46.8949 30.6617 46.6605 30.837 46.4868C31.0124 46.3131 31.2513 46.2146 31.5015 46.2146H40.1257C40.3759 46.2146 40.6148 46.3131 40.7902 46.4868C40.9655 46.6605 41.0631 46.8949 41.0631 47.1384V52.8336C41.0631 53.0771 40.9655 53.3116 40.7902 53.4852C40.6148 53.659 40.3759 53.7575 40.1257 53.7575H31.5015C31.2513 53.7575 31.0124 53.659 30.837 53.4852Z" stroke="#262626"/>
<path d="M53.0618 51.9098H53.5618V51.4098V48.5622V48.0622H53.0618H47.3123H46.8123V48.5622V51.4098V51.9098H47.3123H53.0618ZM45.2104 53.4852L44.9345 53.7637L45.2104 53.4852C45.0351 53.3116 44.9375 53.0771 44.9375 52.8336V47.1384C44.9375 46.8949 45.0351 46.6605 45.2104 46.4868C45.3858 46.3131 45.6247 46.2146 45.8749 46.2146H54.4991C54.7493 46.2146 54.9882 46.3131 55.1637 46.4868C55.3389 46.6605 55.4365 46.8949 55.4365 47.1384V52.8336C55.4365 53.0771 55.3389 53.3116 55.1637 53.4852C54.9882 53.659 54.7493 53.7575 54.4991 53.7575H45.8749C45.6247 53.7575 45.3858 53.659 45.2104 53.4852Z" stroke="#262626"/>
<mask id="path-7-inside-1_52_515" fill="white">
<path d="M65.998 37.1714V31.4762C65.9988 31.1777 65.9049 30.8865 65.7295 30.6438C65.5541 30.4011 65.3061 30.2191 65.0206 30.1236L61.6859 29.0272V27.2048C61.6859 26.0719 61.2316 24.9855 60.4229 24.1844C59.6142 23.3834 58.5174 22.9333 57.3738 22.9333H55.9364V18.6619C55.9364 18.2843 55.785 17.9221 55.5154 17.6551C55.2458 17.3881 54.8802 17.2381 54.499 17.2381H45.8748C45.4935 17.2381 45.1279 17.3881 44.8584 17.6551C44.5888 17.9221 44.4374 18.2843 44.4374 18.6619V22.9333H40.1252V7.27143C40.1252 6.13858 39.6709 5.05212 38.8622 4.25107C38.0536 3.45002 36.9568 3 35.8131 3C34.6695 3 33.5727 3.45002 32.764 4.25107C31.9553 5.05212 31.501 6.13858 31.501 7.27143V22.9333H28.6262C27.4826 22.9333 26.3858 23.3834 25.5771 24.1844C24.7684 24.9855 24.3141 26.0719 24.3141 27.2048V29.0272L20.9794 30.1236C20.6939 30.2191 20.4459 30.4011 20.2705 30.6438C20.0951 30.8865 20.0012 31.1777 20.002 31.4762V45.7143C19.9856 46.0248 20.0723 46.332 20.2488 46.5891C20.4253 46.8462 20.6819 47.039 20.9794 47.1381L24.3141 48.2344V78.4619C24.3141 79.5947 24.7684 80.6812 25.5771 81.4823C26.3858 82.2833 27.4826 82.7333 28.6262 82.7333H57.3738C58.5174 82.7333 59.6142 82.2833 60.4229 81.4823C61.2316 80.6812 61.6859 79.5947 61.6859 78.4619V48.1632L65.0206 47.1381C65.3181 47.039 65.5747 46.8462 65.7512 46.5891C65.9277 46.332 66.0144 46.0248 65.998 45.7143V40.019C65.9988 39.7206 65.9049 39.4294 65.7295 39.1866C65.5541 38.9439 65.3061 38.7619 65.0206 38.6664L64.7906 38.5952L65.0206 38.524C65.3061 38.4285 65.5541 38.2465 65.7295 38.0038C65.9049 37.7611 65.9988 37.4699 65.998 37.1714ZM63.1233 32.5013V36.1463L61.6859 36.6161V32.0315L63.1233 32.5013ZM47.3121 20.0857H53.0616V22.9333H47.3121V20.0857ZM34.3757 7.27143C34.3757 6.89381 34.5272 6.53166 34.7967 6.26464C35.0663 5.99763 35.4319 5.84762 35.8131 5.84762C36.1943 5.84762 36.5599 5.99763 36.8295 6.26464C37.0991 6.53166 37.2505 6.89381 37.2505 7.27143V22.9333H34.3757V7.27143ZM27.1888 27.2048C27.1888 26.8271 27.3403 26.465 27.6098 26.198C27.8794 25.931 28.245 25.781 28.6262 25.781H57.3738C57.755 25.781 58.1206 25.931 58.3902 26.198C58.6597 26.465 58.8112 26.8271 58.8112 27.2048V54.969L53.6366 58.8133C53.4581 58.946 53.3132 59.1179 53.2134 59.3156C53.1136 59.5133 53.0616 59.7313 53.0616 59.9524V79.8857H32.9384V59.9524C32.9384 59.7313 32.8864 59.5133 32.7866 59.3156C32.6868 59.1179 32.5419 58.946 32.3634 58.8133L27.1888 54.969V27.2048ZM22.8767 44.6891V32.5013L24.3141 32.0315V45.159L22.8767 44.6891ZM27.1888 78.4619V58.5286L30.0636 60.6643V79.8857H28.6262C28.245 79.8857 27.8794 79.7357 27.6098 79.4687C27.3403 79.2017 27.1888 78.8395 27.1888 78.4619ZM57.3738 79.8857H55.9364V60.6643L58.8112 58.5286V78.4619C58.8112 78.8395 58.6597 79.2017 58.3902 79.4687C58.1206 79.7357 57.755 79.8857 57.3738 79.8857ZM63.1233 44.6891L61.6859 45.159V40.5743L63.1233 41.0442V44.6891Z"/>
</mask>
<path d="M65.998 37.1714V31.4762C65.9988 31.1777 65.9049 30.8865 65.7295 30.6438C65.5541 30.4011 65.3061 30.2191 65.0206 30.1236L61.6859 29.0272V27.2048C61.6859 26.0719 61.2316 24.9855 60.4229 24.1844C59.6142 23.3834 58.5174 22.9333 57.3738 22.9333H55.9364V18.6619C55.9364 18.2843 55.785 17.9221 55.5154 17.6551C55.2458 17.3881 54.8802 17.2381 54.499 17.2381H45.8748C45.4935 17.2381 45.1279 17.3881 44.8584 17.6551C44.5888 17.9221 44.4374 18.2843 44.4374 18.6619V22.9333H40.1252V7.27143C40.1252 6.13858 39.6709 5.05212 38.8622 4.25107C38.0536 3.45002 36.9568 3 35.8131 3C34.6695 3 33.5727 3.45002 32.764 4.25107C31.9553 5.05212 31.501 6.13858 31.501 7.27143V22.9333H28.6262C27.4826 22.9333 26.3858 23.3834 25.5771 24.1844C24.7684 24.9855 24.3141 26.0719 24.3141 27.2048V29.0272L20.9794 30.1236C20.6939 30.2191 20.4459 30.4011 20.2705 30.6438C20.0951 30.8865 20.0012 31.1777 20.002 31.4762V45.7143C19.9856 46.0248 20.0723 46.332 20.2488 46.5891C20.4253 46.8462 20.6819 47.039 20.9794 47.1381L24.3141 48.2344V78.4619C24.3141 79.5947 24.7684 80.6812 25.5771 81.4823C26.3858 82.2833 27.4826 82.7333 28.6262 82.7333H57.3738C58.5174 82.7333 59.6142 82.2833 60.4229 81.4823C61.2316 80.6812 61.6859 79.5947 61.6859 78.4619V48.1632L65.0206 47.1381C65.3181 47.039 65.5747 46.8462 65.7512 46.5891C65.9277 46.332 66.0144 46.0248 65.998 45.7143V40.019C65.9988 39.7206 65.9049 39.4294 65.7295 39.1866C65.5541 38.9439 65.3061 38.7619 65.0206 38.6664L64.7906 38.5952L65.0206 38.524C65.3061 38.4285 65.5541 38.2465 65.7295 38.0038C65.9049 37.7611 65.9988 37.4699 65.998 37.1714ZM63.1233 32.5013V36.1463L61.6859 36.6161V32.0315L63.1233 32.5013ZM47.3121 20.0857H53.0616V22.9333H47.3121V20.0857ZM34.3757 7.27143C34.3757 6.89381 34.5272 6.53166 34.7967 6.26464C35.0663 5.99763 35.4319 5.84762 35.8131 5.84762C36.1943 5.84762 36.5599 5.99763 36.8295 6.26464C37.0991 6.53166 37.2505 6.89381 37.2505 7.27143V22.9333H34.3757V7.27143ZM27.1888 27.2048C27.1888 26.8271 27.3403 26.465 27.6098 26.198C27.8794 25.931 28.245 25.781 28.6262 25.781H57.3738C57.755 25.781 58.1206 25.931 58.3902 26.198C58.6597 26.465 58.8112 26.8271 58.8112 27.2048V54.969L53.6366 58.8133C53.4581 58.946 53.3132 59.1179 53.2134 59.3156C53.1136 59.5133 53.0616 59.7313 53.0616 59.9524V79.8857H32.9384V59.9524C32.9384 59.7313 32.8864 59.5133 32.7866 59.3156C32.6868 59.1179 32.5419 58.946 32.3634 58.8133L27.1888 54.969V27.2048ZM22.8767 44.6891V32.5013L24.3141 32.0315V45.159L22.8767 44.6891ZM27.1888 78.4619V58.5286L30.0636 60.6643V79.8857H28.6262C28.245 79.8857 27.8794 79.7357 27.6098 79.4687C27.3403 79.2017 27.1888 78.8395 27.1888 78.4619ZM57.3738 79.8857H55.9364V60.6643L58.8112 58.5286V78.4619C58.8112 78.8395 58.6597 79.2017 58.3902 79.4687C58.1206 79.7357 57.755 79.8857 57.3738 79.8857ZM63.1233 44.6891L61.6859 45.159V40.5743L63.1233 41.0442V44.6891Z" stroke="#262626" stroke-width="2" mask="url(#path-7-inside-1_52_515)"/>
</svg>
