<svg width="86" height="86" viewBox="0 0 86 86" fill="none" xmlns="http://www.w3.org/2000/svg">
<g clip-path="url(#clip0_52_461)">
<path d="M76.5802 38.6905C73.5163 36.5545 64.274 30.8321 63.7108 30.484C62.7861 29.8704 61.6932 29.659 60.6338 29.9322C59.4736 30.1642 58.4477 30.9221 57.7832 31.9455C56.4543 33.9924 56.9117 36.7109 58.8619 37.9794L61.3078 40.0394L53.2283 40.1499L39.3428 27.8778L44.4418 28.2557C47.3169 28.7251 49.9532 26.8007 50.4416 23.9391C50.7152 22.5792 50.3709 21.1432 49.5851 20.0566C48.7699 18.899 47.5427 18.1616 46.1765 17.8973C45.3569 17.7387 31.2207 14.9602 26.29 14.1802C20.1235 13.2479 13.7458 15.6439 9.25913 20.5793C5.68072 24.4733 3.82131 29.4823 3.9586 34.6603C4.09588 39.8382 6.26784 44.6708 9.94926 48.2957L26.6336 63.4785C28.2264 64.8952 30.3534 65.1763 32.2117 64.4055C32.9264 64.1091 33.5108 63.7005 34.1079 63.1205C34.8606 62.3097 35.3106 61.3752 35.416 60.4175L37.5593 62.3537C38.631 63.3218 39.913 63.7872 41.3759 63.6789C42.0359 63.6545 42.5656 63.5179 43.1373 63.2807C43.7806 63.0139 44.2935 62.635 44.8485 62.1555L45.8238 62.0834C45.4999 62.7162 45.277 63.3904 45.2557 64.147C45.1965 65.418 45.6376 66.4815 46.5075 67.3671C47.348 68.1817 48.3568 68.5943 49.5044 68.5337L66.8531 68.1517C68.6607 68.0667 70.4222 67.6685 71.9945 67.0163C77.9266 64.5559 82.2454 58.6099 82.5079 51.7704C82.7701 46.3436 80.4972 41.4698 76.5802 38.6905ZM41.2378 61.3265C40.5063 61.3806 39.7287 61.1215 39.1782 60.602L33.9501 55.8736C33.9207 55.8027 33.8199 55.7615 33.8199 55.7615L22.7123 45.7441C22.1912 45.2955 21.4597 45.3496 21.0771 45.8407C20.6229 46.3614 20.6732 47.0884 21.1649 47.4661L32.2724 57.4835C33.4744 58.5638 33.5495 60.3607 32.4563 61.562C31.363 62.7633 29.5554 62.8483 28.3534 61.768L11.5976 46.6149C4.74321 39.9852 4.49395 29.2864 10.9401 22.2087C14.9306 17.8946 20.4927 15.7538 25.9404 16.5687C30.8417 17.2779 45.6252 20.2033 45.7261 20.2446C46.5164 20.3323 47.1384 20.8221 47.6469 21.4422C48.0839 22.0918 48.235 22.8601 48.1423 23.6464C48.0496 24.4327 47.5534 25.054 46.9269 25.5631C46.271 26.0013 45.4975 26.156 44.7072 26.0683C44.7072 26.0683 44.6357 26.0979 44.6063 26.027L35.1693 25.288C34.7237 25.2235 34.3243 25.4723 34.0552 25.8332C31.2711 30.2286 24.7044 32.3706 20.064 30.473C19.4588 30.2255 18.7441 30.5219 18.4917 31.1252C18.2393 31.7284 18.5334 32.4374 19.1386 32.6849C24.586 34.9126 31.8841 32.7164 35.5679 27.8648L49.5417 40.3495L46.5403 40.1818C45.1194 40.1894 43.9212 40.9357 43.0423 42.0481L36.7426 36.3517C36.2215 35.9031 35.49 35.9572 35.1073 36.4483C34.6532 36.969 34.7034 37.696 35.1952 38.0737L42.1463 44.3309C42.1042 44.4314 42.1336 44.5023 42.121 44.6738C42.0998 45.4304 42.2215 46.1278 42.587 46.8071L41.3385 46.8264C40.0185 46.8753 38.8329 47.4502 37.9961 48.462L33.5792 44.4775C33.058 44.0289 32.3266 44.083 31.9439 44.5741C31.4898 45.0948 31.54 45.8218 32.0317 46.1995L36.9992 50.7035C36.9866 50.875 36.9739 51.0464 36.9907 51.2888C36.9315 52.5597 37.3726 53.6232 38.2425 54.5088C38.9233 55.1404 39.7597 55.5413 40.6509 55.6703C40.327 56.3032 40.104 56.9773 40.0828 57.734C40.0236 59.0049 40.4647 60.0684 41.3346 60.954C41.4649 61.0661 41.5952 61.1783 41.7254 61.2904C41.4816 61.3085 41.3807 61.2672 41.2378 61.3265ZM80.1959 51.6491C79.8828 59.1743 74.0169 65.4296 66.8159 65.8405L49.4672 66.2225C48.9796 66.2586 48.5467 66.0227 48.1558 65.6863C47.765 65.3498 47.6012 64.753 47.6098 64.1678C47.6269 62.9974 48.6361 61.9971 49.7122 61.9662L61.264 61.7451C61.924 61.7206 62.4496 61.1702 62.4287 60.5141C62.4079 59.858 61.8574 59.3385 61.1974 59.363L49.675 59.655L49.5027 59.6434C49.5027 59.6434 43.8487 59.745 43.6764 59.7334C43.3317 59.7102 43.0711 59.4859 42.8105 59.2616C42.4197 58.9251 42.2559 58.3283 42.2645 57.7431C42.2437 57.087 42.5969 56.525 43.009 56.1048C43.379 55.7851 55.9187 55.3204 55.9187 55.3204C56.5787 55.2959 57.1043 54.7455 57.0835 54.0894C57.0626 53.4333 56.5121 52.9138 55.8521 52.9383L41.0004 53.2818C40.5128 53.3178 40.0799 53.0819 39.689 52.7455C39.2982 52.409 39.1344 51.8122 39.143 51.227C39.1809 50.7127 39.3492 50.3105 39.5889 49.8787C39.9716 49.3876 40.556 48.979 41.216 48.9546L58.4932 48.6022C59.1532 48.5777 59.6788 48.0273 59.658 47.3712C59.6371 46.7151 59.0866 46.1956 58.4266 46.2201L46.2863 46.4361C45.6978 46.4309 45.1934 46.2246 44.8741 45.8585C44.4832 45.5221 44.3488 44.9961 44.3153 44.5115C44.3113 44.0977 44.4795 43.6955 44.6772 43.3643C45.0725 42.7017 45.7284 42.2635 46.4178 42.3099L64.4305 42.3172C64.9182 42.2811 65.3891 42.0027 65.5279 41.5297C65.6668 41.0566 65.5324 40.5307 65.171 40.2651C65.171 40.2651 60.1067 36.1336 60.0773 36.0627C59.1526 35.4491 58.968 34.1962 59.6325 33.1727C59.9437 32.7113 60.4566 32.3323 60.9863 32.1957C61.4446 32.0888 61.9195 32.2241 62.3524 32.46C62.4533 32.5013 72.0571 38.4892 75.1209 40.6252C78.4875 42.885 80.3654 47.0087 80.1959 51.6491Z" fill="#262626"/>
</g>
<defs>
<clipPath id="clip0_52_461">
<rect width="86" height="86" fill="white"/>
</clipPath>
</defs>
</svg>
