<svg width="86" height="86" viewBox="0 0 86 86" fill="none" xmlns="http://www.w3.org/2000/svg">
<path d="M72.3479 45.8055H71.4674L71.3533 46.6785C69.6718 59.5452 59.2953 69.6816 46.3126 70.9893L45.41 71.0802V71.9873V79.9969H41.5901V71.9966V71.0871L40.685 70.9984C27.6663 69.7216 17.2518 59.5675 15.5679 46.6786L15.4538 45.8055H14.5733H6.50305V41.9852H14.3968H15.3333L15.3975 41.0508C16.3382 27.342 27.0925 16.3367 40.6847 15.0067L41.5901 14.9181V14.0084V6.00305H45.41V14.0176V14.925L46.3129 15.0156C59.869 16.377 70.5851 27.3688 71.5188 41.0504L71.5826 41.9852H72.5195H80.4969V45.8055H72.3479ZM52.9237 20.5997L52.9224 20.5991C50.8759 19.7333 48.736 19.1569 46.5376 18.8811L45.4097 18.7396V19.8764V34.5485V35.2682L46.0916 35.4987C48.6932 36.378 50.7042 38.5351 51.3746 41.2249L51.5642 41.9853H52.3479H66.6791H67.7709L67.6786 40.8975C67.463 38.3567 66.8509 35.888 65.8591 33.5415C64.6375 30.6474 62.8827 28.0437 60.6486 25.8095C58.4142 23.5749 55.8154 21.828 52.9237 20.5997ZM21.0575 33.5408L21.0574 33.541C20.065 35.8886 19.4576 38.3573 19.24 40.8965L19.1467 41.9852H20.2394H34.6539H35.4376L35.6271 41.2247C36.2976 38.5346 38.3066 36.378 40.9082 35.4985L41.59 35.268V34.5483V19.8669V18.7319L40.4636 18.8714C38.2391 19.147 36.0709 19.7229 33.999 20.599L33.9975 20.5997C31.106 21.8278 28.505 23.5747 26.2701 25.8095L26.2698 25.8099C24.0385 28.0436 22.2816 30.6468 21.0575 33.5408ZM33.9991 65.4009L33.9991 65.4009C36.0709 66.2771 38.2392 66.8529 40.4637 67.129L41.5903 67.2688V66.1336V51.828V51.1062L40.9059 50.8769C38.728 50.1472 36.9614 48.5045 36.0523 46.4097L35.7903 45.8059H35.1322H20.4622H19.2822L19.4723 46.9706C19.7798 48.8543 20.3123 50.6933 21.0569 52.4628L21.0578 52.4651C22.282 55.3541 24.0389 57.9567 26.2699 60.1903L26.2711 60.1914C28.5042 62.4198 31.1048 64.1768 33.9991 65.4009ZM45.4097 66.1195V67.2565L46.5378 67.1147C48.7345 66.8387 50.8741 66.2679 52.9225 65.4008C55.8166 64.1765 58.4151 62.4196 60.6478 60.1912L60.6485 60.1905C62.8824 57.9565 64.6366 55.353 65.8588 52.4642C66.6093 50.6919 67.1366 48.8525 67.4462 46.9714L67.638 45.8055H66.4564H51.8678H51.2097L50.9477 46.4092C50.0387 48.5038 48.2697 50.1471 46.094 50.8765L45.4097 51.1059V51.8275V66.1195Z" stroke="#262626" stroke-width="2.0061"/>
</svg>
