<svg width="86" height="86" viewBox="0 0 86 86" fill="none" xmlns="http://www.w3.org/2000/svg">
<path d="M63.8144 43.1863C60.3104 43.1863 57.4595 46.1361 57.4595 49.7631C57.4595 53.39 60.3092 56.3398 63.8144 56.3398C67.3195 56.3398 70.1681 53.39 70.1681 49.7631C70.1681 46.1361 67.3183 43.1863 63.8144 43.1863ZM63.8144 53.8817C61.6201 53.8817 59.8342 52.0344 59.8342 49.7631C59.8342 47.4917 61.6201 45.6444 63.8144 45.6444C66.0086 45.6444 67.7933 47.4917 67.7933 49.7631C67.7933 52.0344 66.0086 53.8817 63.8144 53.8817Z" fill="#262626"/>
<path d="M22.947 43.1863C19.4442 43.1863 16.5933 46.1361 16.5933 49.7631C16.5933 53.39 19.443 56.3398 22.947 56.3398C26.4509 56.3398 29.3018 53.39 29.3018 49.7631C29.3018 46.1361 26.4521 43.1863 22.947 43.1863ZM22.947 53.8817C20.7527 53.8817 18.968 52.0344 18.968 49.7631C18.968 47.4917 20.7527 45.6444 22.947 45.6444C25.1412 45.6444 26.9271 47.4917 26.9271 49.7631C26.9271 52.0344 25.1412 53.8817 22.947 53.8817Z" fill="#262626"/>
<path d="M74.1531 27.498H70.2074L67.7733 15.7468C67.0787 12.4246 64.1969 10.0132 60.9233 10.0132H25.8384C22.5648 10.0132 19.683 12.4246 18.9884 15.7493L16.5542 27.498H12.6086C9.93457 27.498 7.75928 29.7558 7.75928 32.5323V32.6675C7.75928 35.2436 9.6401 37.3502 12.0469 37.6427C11.2241 38.7157 10.7123 40.0542 10.7123 41.5266V59.8533C10.7123 63.3193 13.4362 66.1388 16.7846 66.1388H17.0221V72.836C17.0221 75.1246 18.821 76.9866 21.0319 76.9866H30.1213C32.3239 76.9866 34.1169 75.1246 34.1169 72.836V66.1388H52.6424V72.836C52.6424 75.1246 54.4354 76.9866 56.638 76.9866H65.7274C67.9383 76.9866 69.7372 75.1246 69.7372 72.836V66.1388H69.9747C73.3231 66.1388 76.047 63.3193 76.047 59.8533V41.5266C76.047 40.0542 75.5352 38.7157 74.7124 37.6427C77.1192 37.3502 79 35.2436 79 32.6675V32.5323C79 29.7558 76.8247 27.498 74.1507 27.498H74.1531ZM18.6761 28.9852C18.6761 28.9852 18.6761 28.979 18.6761 28.9766L21.3097 16.2667C21.7704 14.0679 23.6738 12.4713 25.8372 12.4713H60.9233C63.0867 12.4713 64.9912 14.0679 65.4508 16.2643L68.0844 28.9753C68.0844 28.9753 68.0844 28.9815 68.0844 28.9852L69.3822 35.2411H66.2309L62.829 18.8527C62.3849 16.7043 60.5207 15.1458 58.3989 15.1458H28.3628C26.2409 15.1458 24.3767 16.7043 23.9327 18.8514L20.5308 35.2399H17.3795L18.6773 28.9839L18.6761 28.9852ZM63.8027 35.2411H22.959L26.2528 19.3677C26.4653 18.3463 27.3523 17.6039 28.3616 17.6039H58.3989C59.4093 17.6039 60.2963 18.3463 60.5077 19.3677L63.8027 35.2411ZM10.134 32.6687V32.5335C10.134 31.1127 11.2443 29.9574 12.6086 29.9574H16.0449L14.9489 35.2448H12.6086C11.2443 35.2448 10.134 34.0895 10.134 32.6687ZM31.7433 72.836C31.7433 73.7689 31.0166 74.5285 30.1225 74.5285H21.0331C20.1318 74.5285 19.398 73.7689 19.398 72.836V66.1388H31.7433V72.836ZM67.3636 72.836C67.3636 73.7689 66.6298 74.5285 65.7286 74.5285H56.6392C55.7451 74.5285 55.0184 73.7689 55.0184 72.836V66.1388H67.3636V72.836ZM73.6734 59.8533C73.6734 61.9636 72.0146 63.6807 69.9759 63.6807H16.7858C14.747 63.6807 13.0883 61.9636 13.0883 59.8533V41.5266C13.0883 39.4261 14.7328 37.7177 16.7573 37.7017H70.0056C72.0312 37.7177 73.6746 39.4261 73.6746 41.5266L73.6734 59.8533ZM76.6264 32.6675C76.6264 34.0883 75.5162 35.2436 74.1519 35.2436H71.8116L70.7156 29.9561H74.1519C75.5162 29.9561 76.6264 31.1115 76.6264 32.5323V32.6675Z" fill="#262626"/>
<path d="M52.2524 46.0955H34.5116C33.7719 46.0955 33.0785 46.4347 32.6094 47.0283C32.1404 47.622 31.9564 48.3914 32.1024 49.1436L33.2364 54.9362C33.4667 56.1173 34.4796 56.9752 35.6444 56.9752H51.1172C52.282 56.9752 53.2949 56.1186 53.5252 54.9374L54.6592 49.1423C54.8052 48.3914 54.6212 47.6207 54.1522 47.0283C53.6832 46.4359 52.9897 46.0955 52.25 46.0955H52.2524ZM51.198 54.4495C51.1908 54.4876 51.1576 54.5158 51.1184 54.5158L35.5648 54.4482L34.4309 48.6544L33.2673 48.899L34.5116 48.5536H52.2524L52.3319 48.6544L51.198 54.4495Z" fill="#262626"/>
</svg>
