<svg width="87" height="86" viewBox="0 0 87 86" fill="none" xmlns="http://www.w3.org/2000/svg">
<path d="M75.2453 61.65C73.496 56.9263 66.499 56.2515 61.0326 57.6011C63.3285 56.364 65.6244 54.9019 67.483 52.8775C70.1068 49.9533 71.9654 45.2297 70.3255 41.0684C68.5762 36.6821 63.6565 34.7702 59.6113 34.8826C54.2542 34.9951 49.9904 37.5819 43.2121 40.506C44.9613 36.907 45.508 33.1956 45.2893 29.7091C44.4147 19.587 36.2151 11.2644 24.8449 12.0516C13.0375 12.8389 3.30729 24.3106 5.93117 36.1198C8.11773 45.1172 16.4267 51.3029 21.2371 51.5279C20.6905 51.8653 20.2532 52.2027 19.9252 52.5401C17.3013 54.9019 16.0987 58.6134 16.864 62.3248C17.4106 64.9116 18.7226 67.0484 20.5811 68.7355C21.6744 71.7721 25.5009 73.5716 28.4528 74.3589C32.4979 75.4835 36.7617 74.9212 40.8069 74.2464C50.6464 72.6718 60.4859 70.4225 70.1068 67.6108C73.168 66.5986 76.4479 64.6866 75.2453 61.65ZM24.9543 13.7387C33.9192 13.1763 41.2442 18.7997 43.2121 26.8974C33.0446 29.0343 20.7998 30.6088 8.44571 31.1712C8.44571 22.0613 15.2241 14.4135 24.9543 13.7387ZM8.55504 32.8582C20.9091 32.2959 33.2632 30.7213 43.5401 28.4719C43.6494 29.1468 43.7587 29.934 43.7587 30.6088C43.6494 30.6088 43.5401 30.4964 43.3214 30.6088C18.6132 36.907 11.2882 34.6577 8.88303 35.1076C8.66437 34.3203 8.55504 33.6455 8.55504 32.8582ZM9.21101 36.6821C21.2371 37.2444 31.9513 35.22 43.6494 32.2959C43.4307 35.445 42.4468 38.7065 40.8069 41.4058C37.0897 43.0928 29.6554 46.5793 24.6263 49.391C16.9733 48.9411 11.3976 43.7676 9.21101 36.6821ZM47.6945 61.9874C44.524 63.4495 41.3535 65.024 38.183 66.4861C33.3725 68.7355 28.7808 70.535 24.517 69.0729C21.4558 68.0607 19.1599 65.249 18.5039 61.8749C17.8479 58.7258 18.8319 55.6892 21.1278 53.7772C23.3144 51.7528 31.4046 47.704 37.527 44.8923C37.6363 45.0047 37.6363 45.0047 37.7457 45.0047C43.7587 47.1416 48.3505 54.9019 47.6945 61.9874ZM49.3345 61.2001C49.5531 54.1146 45.2893 46.6918 39.3856 43.8801C54.0356 37.132 56.2221 36.4572 59.7206 36.3447C63.2192 36.2322 67.3736 37.8068 68.7949 41.5182C70.2162 45.0047 68.5762 49.0536 66.2803 51.5279C63.1098 55.1268 58.9554 56.7014 49.3345 61.2001Z" fill="#262626"/>
<path d="M51.577 11.6705L49.8778 20.8341C49.7778 21.2811 50.0777 21.7281 50.4775 21.8399C50.8773 21.9516 51.2772 21.6164 51.3771 21.1694L53.0764 12.0058C53.1764 11.5588 52.8765 11.1118 52.4767 11C51.9769 11 51.577 11.2235 51.577 11.6705Z" fill="#0E0E10"/>
<path d="M59.6736 16.5874C59.3737 16.2522 58.874 16.3639 58.5741 16.6992L54.3759 22.2867C54.076 22.622 54.176 23.1808 54.4758 23.516C54.7757 23.8513 55.2755 23.7395 55.5754 23.4043L59.7736 17.8167C59.9735 17.3697 59.9735 16.8109 59.6736 16.5874Z" fill="#0E0E10"/>
<path d="M57.7748 27.4274L64.272 24.6336C64.6718 24.5219 64.8717 23.9631 64.6718 23.5161C64.5719 23.0691 64.0721 22.8456 63.6723 23.0691L57.175 25.8629C56.7752 25.9747 56.5753 26.5334 56.7752 26.9804C56.8752 27.3157 57.3749 27.5392 57.7748 27.4274Z" fill="#0E0E10"/>
</svg>
