<svg width="87" height="86" viewBox="0 0 87 86" fill="none" xmlns="http://www.w3.org/2000/svg">
<path d="M58.6931 53.8582V33.3566L66.4015 24.4088C66.4263 24.4084 66.4496 24.4025 66.4743 24.4016L67.641 25.45L74.032 31.1928C74.4186 31.5403 74.9121 31.7317 75.4216 31.7317C76.2413 31.7317 76.9877 31.2476 77.3232 30.4986C77.6552 29.7573 77.5131 28.9196 76.9522 28.3125L71.1298 22.0089L70.0669 20.8581C70.0688 20.8097 70.0815 20.7643 70.0815 20.7155C70.0815 18.675 68.3985 17.0149 66.3297 17.0149C66.271 17.0149 66.2163 17.0294 66.1583 17.0321L65.3233 16.2817L58.9323 10.5388C58.5457 10.1914 58.0522 10 57.5427 10C56.723 10 55.9766 10.484 55.641 11.2331C55.3091 11.9744 55.4512 12.8121 56.012 13.4192L61.8345 19.7228L62.5952 20.5465C62.5925 20.6037 62.5779 20.6576 62.5779 20.7155C62.5779 20.7797 62.5938 20.8395 62.5971 20.9029L53.3152 28.6824H34.6845L25.4029 20.9028C25.4062 20.8395 25.4221 20.7796 25.4221 20.7155C25.4221 20.6576 25.4074 20.6037 25.4048 20.5464L26.1655 19.7228L31.988 13.4192C32.5488 12.8121 32.6909 11.9744 32.3589 11.2331C32.0234 10.484 31.277 10 30.4573 10C29.9479 10 29.4543 10.1914 29.0676 10.5388L22.6767 16.2817L21.8417 17.0321C21.7837 17.0294 21.729 17.0149 21.6703 17.0149C19.6015 17.0149 17.9185 18.675 17.9185 20.7155C17.9185 20.7643 17.9312 20.8097 17.9331 20.8581L16.8702 22.0089L11.0478 28.3125C10.487 28.9196 10.3448 29.7573 10.6768 30.4986C11.0123 31.2476 11.7587 31.7317 12.5784 31.7317C13.0879 31.7317 13.5814 31.5403 13.9681 31.1928L20.359 25.45L21.5257 24.4016C21.5501 24.4025 21.5731 24.4083 21.5977 24.4088L29.3074 33.357V53.8578L21.783 62.5912C21.7585 62.5917 21.7354 62.5975 21.711 62.5984L20.5443 61.55L14.1533 55.8071C13.7667 55.4597 13.2732 55.2683 12.7638 55.2683C11.9441 55.2684 11.1974 55.7525 10.862 56.5016C10.5301 57.2429 10.6723 58.0804 11.2331 58.6875L17.0555 64.9911L18.1184 66.1419C18.1165 66.1903 18.1038 66.2357 18.1038 66.2845C18.1038 68.325 19.7868 69.9851 21.8556 69.9851C21.9143 69.9851 21.969 69.9706 22.027 69.9679L22.862 70.7183L29.253 76.4612C29.6397 76.8086 30.1332 77 30.6426 77C31.4623 77 32.2088 76.516 32.5442 75.7669C32.8762 75.0256 32.7341 74.1879 32.1733 73.5808L26.3508 67.2772L25.5901 66.4536C25.5927 66.3963 25.6074 66.3424 25.6074 66.2845C25.6074 66.2201 25.5914 66.16 25.5881 66.0964L33.213 59.7058C33.2358 59.7061 33.257 59.7124 33.2798 59.7124H54.7206C54.7433 59.7124 54.7643 59.7062 54.7869 59.7058L62.4119 66.0967C62.4086 66.1602 62.3926 66.2202 62.3926 66.2845C62.3926 66.3424 62.4073 66.3963 62.4099 66.4535L61.6492 67.2772L55.8268 73.5807C55.2659 74.1879 55.1238 75.0256 55.4557 75.7669C55.7913 76.516 56.5377 77 57.3574 77C57.8668 77 58.3603 76.8086 58.747 76.4612L65.138 70.7183L65.973 69.9679C66.0311 69.9706 66.0857 69.9851 66.1444 69.9851C68.2132 69.9851 69.8962 68.325 69.8962 66.2845C69.8962 66.2357 69.8835 66.1903 69.8816 66.1419L70.9445 64.9911L76.767 58.6875C77.3278 58.0803 77.4699 57.2427 77.1379 56.5014C76.8024 55.7524 76.056 55.2683 75.2363 55.2683C74.7269 55.2683 74.2334 55.4597 73.8466 55.8072L67.4557 61.55L66.289 62.5984C66.2646 62.5975 66.2417 62.5917 66.2172 62.5912L58.6931 53.8582ZM75.7776 29.368C76.0948 29.7114 75.786 30.1644 75.4216 30.1644C75.3151 30.1644 75.2039 30.1258 75.1021 30.0343L68.7111 24.2914L69.9552 23.0644L75.7776 29.368ZM68.4925 20.7155C68.4925 21.8937 67.5242 22.8488 66.3297 22.8488C65.1352 22.8488 64.1669 21.8937 64.1669 20.7155C64.1669 19.5373 65.1352 18.5822 66.3297 18.5822C67.5242 18.5822 68.4925 19.5373 68.4925 20.7155ZM57.1867 12.3637C56.8694 12.0203 57.1783 11.5673 57.5427 11.5673C57.6492 11.5673 57.7605 11.606 57.8622 11.6974L64.2531 17.4402L63.0091 18.6673L57.1867 12.3637ZM64.6594 24.0114L58.4318 31.2401C57.9728 30.0266 56.9286 29.0996 55.6328 28.7967L63.0895 22.5471C63.4566 23.176 63.9997 23.6846 64.6594 24.0114ZM54.7206 58.1451H33.2798C31.9655 58.1451 30.8964 57.0906 30.8964 55.7943V32.6006C30.8964 31.3042 31.9655 30.2497 33.2798 30.2497H54.7206C56.0349 30.2497 57.1041 31.3042 57.1041 32.6006V55.7943C57.1041 57.0906 56.0349 58.1451 54.7206 58.1451ZM32.3671 28.7969C31.0716 29.0999 30.0278 30.0267 29.5687 31.2398L23.3408 24.0114C24.0004 23.6846 24.5435 23.176 24.9105 22.547L32.3671 28.7969ZM30.1378 11.6974C30.2395 11.606 30.3508 11.5673 30.4573 11.5673C30.8217 11.5673 31.1305 12.0203 30.8134 12.3637L24.9909 18.6673L23.7468 17.4402L30.1378 11.6974ZM21.6703 18.5822C22.8648 18.5822 23.8331 19.5373 23.8331 20.7155C23.8331 21.8937 22.8648 22.8488 21.6703 22.8488C20.4758 22.8488 19.5075 21.8937 19.5075 20.7155C19.5075 19.5373 20.4758 18.5822 21.6703 18.5822ZM12.8979 30.0343C12.7962 30.1258 12.685 30.1644 12.5784 30.1644C12.2141 30.1644 11.9052 29.7114 12.2223 29.368L18.0448 23.0644L19.2889 24.2914L12.8979 30.0343ZM12.4076 57.632C12.0905 57.2886 12.3993 56.8356 12.7637 56.8355C12.8702 56.8355 12.9814 56.8742 13.0832 56.9657L19.4742 62.7086L18.2301 63.9356L12.4076 57.632ZM19.6928 66.2845C19.6928 65.1063 20.6611 64.1512 21.8556 64.1512C23.0501 64.1512 24.0184 65.1063 24.0184 66.2845C24.0184 67.4627 23.0501 68.4178 21.8556 68.4178C20.6611 68.4178 19.6928 67.4627 19.6928 66.2845ZM30.9986 74.6363C31.3158 74.9796 31.007 75.4327 30.6426 75.4327C30.5361 75.4327 30.4248 75.394 30.3231 75.3026L23.9321 69.5598L25.1762 68.3326L30.9986 74.6363ZM25.0958 64.4529C24.7288 63.824 24.1856 63.3153 23.526 62.9886L29.3517 56.2268C29.4973 57.511 30.2651 58.6001 31.3599 59.2028L25.0958 64.4529ZM56.6402 59.2031C57.7354 58.6003 58.5033 57.511 58.6488 56.2264L64.4746 62.9883C63.8147 63.3151 63.2712 63.8239 62.9041 64.4531L56.6402 59.2031ZM57.6769 75.3026C57.5752 75.394 57.4639 75.4327 57.3574 75.4327C56.993 75.4327 56.6841 74.9796 57.0013 74.6363L62.8238 68.3326L64.0679 69.5598L57.6769 75.3026ZM66.1444 68.4178C64.9499 68.4178 63.9816 67.4627 63.9816 66.2845C63.9816 65.1063 64.9499 64.1512 66.1444 64.1512C67.3389 64.1512 68.3073 65.1063 68.3073 66.2845C68.3073 67.4627 67.3389 68.4178 66.1444 68.4178ZM74.9168 56.9657C75.0186 56.8742 75.1298 56.8355 75.2363 56.8355C75.6007 56.8355 75.9095 57.2886 75.5923 57.632L69.7699 63.9356L68.5258 62.7086L74.9168 56.9657Z" fill="#262626"/>
</svg>
