<svg width="71" height="91" viewBox="0 0 71 91" fill="none" xmlns="http://www.w3.org/2000/svg">
<g id="Vector 96">
<path d="M24.9942 1H32.4403V45.6524H39.7194V76.8938L65.2014 53.8819L70 58.4538L35.9137 90L1 58.4538L6.46043 53.7295L32.4388 76.8938L32.4403 45.6524C32.4403 45.6524 25.489 45.6524 24.9942 39.8613C24.4995 34.0702 24.9942 1 24.9942 1Z" fill="#F9DD73"/>
<path d="M32.4403 45.6524V1H24.9942C24.9942 1 24.4995 34.0702 24.9942 39.8613C25.489 45.6524 32.4403 45.6524 32.4403 45.6524ZM32.4403 45.6524H39.7194V76.8938L65.2014 53.8819L70 58.4538L35.9137 90L1 58.4538L6.46043 53.7295L32.4388 76.8938L32.4403 45.6524Z" stroke="#FFDF5A" stroke-width="0.5"/>
</g>
</svg>
