<svg width="18" height="20" viewBox="0 0 18 20" fill="none" xmlns="http://www.w3.org/2000/svg">
<path d="M9.00396 0.969465C9.14546 0.766608 9.32724 0.595087 9.53796 0.465603C9.74869 0.33612 9.98384 0.251454 10.2287 0.216886C10.4736 0.182319 10.723 0.198592 10.9614 0.264691C11.1997 0.33079 11.4219 0.445296 11.614 0.601065L15.538 3.78706C15.8886 4.07158 16.1195 4.47748 16.1848 4.92425C16.2502 5.37103 16.1452 5.82605 15.8908 6.19906H14.4268L14.8948 5.52826C14.9819 5.40401 15.0187 5.25137 14.9977 5.10107C14.9768 4.95077 14.8997 4.81399 14.782 4.71826L12.7612 3.07906L10.606 6.19906H9.14556L11.8264 2.32066L10.8568 1.53346C10.7927 1.48152 10.7187 1.44333 10.6393 1.42126C10.5599 1.3992 10.4767 1.39374 10.3951 1.40522C10.3135 1.41671 10.2351 1.44489 10.1648 1.48801C10.0946 1.53114 10.034 1.58828 9.98676 1.65586L6.81756 6.19786H5.35356L9.00396 0.969465ZM13.2016 13.3991C13.0424 13.3991 12.8898 13.4623 12.7773 13.5748C12.6648 13.6873 12.6016 13.8399 12.6016 13.9991C12.6016 14.1582 12.6648 14.3108 12.7773 14.4233C12.8898 14.5359 13.0424 14.5991 13.2016 14.5991H14.4016C14.5607 14.5991 14.7133 14.5359 14.8258 14.4233C14.9383 14.3108 15.0016 14.1582 15.0016 13.9991C15.0016 13.8399 14.9383 13.6873 14.8258 13.5748C14.7133 13.4623 14.5607 13.3991 14.4016 13.3991H13.2016ZM2.40156 4.99906H5.00436L4.16436 6.19906H2.40156C2.24243 6.19906 2.08982 6.26228 1.9773 6.3748C1.86478 6.48732 1.80156 6.63993 1.80156 6.79906C1.80156 6.95819 1.86478 7.11081 1.9773 7.22333C2.08982 7.33585 2.24243 7.39906 2.40156 7.39906H15.0016C15.6381 7.39906 16.2485 7.65192 16.6986 8.10201C17.1487 8.5521 17.4016 9.16255 17.4016 9.79906V16.9991C17.4016 17.6356 17.1487 18.246 16.6986 18.6961C16.2485 19.1462 15.6381 19.3991 15.0016 19.3991H3.60156C2.80591 19.3991 2.04285 19.083 1.48024 18.5204C0.917633 17.9578 0.601562 17.1947 0.601562 16.3991V6.79906C0.601562 6.32167 0.791205 5.86384 1.12877 5.52627C1.46634 5.18871 1.92417 4.99906 2.40156 4.99906ZM1.80156 16.3991C1.80156 16.8765 1.9912 17.3343 2.32877 17.6719C2.66634 18.0094 3.12417 18.1991 3.60156 18.1991H15.0016C15.3198 18.1991 15.625 18.0726 15.8501 17.8476C16.0751 17.6225 16.2016 17.3173 16.2016 16.9991V9.79906C16.2016 9.4808 16.0751 9.17558 15.8501 8.95054C15.625 8.72549 15.3198 8.59906 15.0016 8.59906H2.40156C2.19156 8.59906 1.98876 8.56306 1.80156 8.49706V16.3991Z" fill="white"/>
</svg>
